<svg width="64" height="64" xmlns="http://www.w3.org/2000/svg" viewBox="0 0 64 64">
  <g fill="none" stroke="#7a6f5d" stroke-width="2">
    <!-- Brain outline -->
    <path d="M 20 16 Q 16 16 16 20 Q 16 12 24 12 Q 32 12 32 20 Q 32 12 40 12 Q 48 12 48 20 Q 48 16 44 16 Q 48 24 48 32 Q 48 44 40 48 Q 36 50 32 50 Q 28 50 24 48 Q 16 44 16 32 Q 16 24 20 16" fill="#7a6f5d" opacity="0.1"/>

    <!-- Neural connections inside -->
    <g opacity="0.6">
      <circle cx="24" cy="24" r="2" fill="#2c2c2c"/>
      <circle cx="32" cy="28" r="2" fill="#2c2c2c"/>
      <circle cx="40" cy="24" r="2" fill="#2c2c2c"/>
      <circle cx="28" cy="36" r="2" fill="#2c2c2c"/>
      <circle cx="36" cy="36" r="2" fill="#2c2c2c"/>

      <line x1="24" y1="24" x2="32" y2="28" stroke="#4a4a4a" stroke-width="1"/>
      <line x1="32" y1="28" x2="40" y2="24" stroke="#4a4a4a" stroke-width="1"/>
      <line x1="32" y1="28" x2="28" y2="36" stroke="#4a4a4a" stroke-width="1"/>
      <line x1="32" y1="28" x2="36" y2="36" stroke="#4a4a4a" stroke-width="1"/>
      <line x1="24" y1="24" x2="28" y2="36" stroke="#4a4a4a" stroke-width="1"/>
      <line x1="40" y1="24" x2="36" y2="36" stroke="#4a4a4a" stroke-width="1"/>
    </g>
  </g>
</svg>
