<svg width="64" height="64" xmlns="http://www.w3.org/2000/svg" viewBox="0 0 64 64">
  <g fill="none" stroke="#7a6f5d" stroke-width="2">
    <!-- Central node -->
    <circle cx="32" cy="32" r="6" fill="#7a6f5d" opacity="0.3"/>

    <!-- Surrounding nodes -->
    <circle cx="16" cy="16" r="4" fill="#2c2c2c"/>
    <circle cx="48" cy="16" r="4" fill="#2c2c2c"/>
    <circle cx="16" cy="48" r="4" fill="#2c2c2c"/>
    <circle cx="48" cy="48" r="4" fill="#2c2c2c"/>
    <circle cx="32" cy="8" r="4" fill="#2c2c2c"/>
    <circle cx="8" cy="32" r="4" fill="#2c2c2c"/>
    <circle cx="56" cy="32" r="4" fill="#2c2c2c"/>
    <circle cx="32" cy="56" r="4" fill="#2c2c2c"/>

    <!-- Connections -->
    <line x1="16" y1="16" x2="32" y2="32" stroke="#4a4a4a" opacity="0.5"/>
    <line x1="48" y1="16" x2="32" y2="32" stroke="#4a4a4a" opacity="0.5"/>
    <line x1="16" y1="48" x2="32" y2="32" stroke="#4a4a4a" opacity="0.5"/>
    <line x1="48" y1="48" x2="32" y2="32" stroke="#4a4a4a" opacity="0.5"/>
    <line x1="32" y1="8" x2="32" y2="32" stroke="#4a4a4a" opacity="0.5"/>
    <line x1="8" y1="32" x2="32" y2="32" stroke="#4a4a4a" opacity="0.5"/>
    <line x1="56" y1="32" x2="32" y2="32" stroke="#4a4a4a" opacity="0.5"/>
    <line x1="32" y1="56" x2="32" y2="32" stroke="#4a4a4a" opacity="0.5"/>
  </g>
</svg>
